<?xml version="1.0" encoding="UTF-8"?>
<svg xmlns="http://www.w3.org/2000/svg" version="1.1" viewBox="0 0 1390 190">
  <defs>
    <style>
      .cls-1 {
        fill: #404041;
      }

      .cls-2 {
        fill: #447099;
      }

      .cls-3 {
        fill: #ee6331;
      }
    </style>
  </defs>
  <!-- Generator: Adobe Illustrator 28.6.0, SVG Export Plug-In . SVG Version: 1.2.0 Build 709)  -->
  <g>
    <g id="Layer_1">
      <g id="full-rgb">
        <path id="fullLogo" class="cls-1" d="M228.2,50.8h27.2v5.1c5.1-4.7,14.3-7.2,21.8-7.2,29.7,0,48.1,20.5,48.1,49.4s-19.2,51.9-48.9,51.9-18-1.5-21-4.9v41h-27.3V50.8h.1ZM255.4,85.2v31.2c3,4.5,9.6,8.3,17.3,8.3,15.2,0,24.4-9.6,24.4-24.4s-8.6-26.1-22.9-26.1c-7.9-.3-15.2,4-18.8,11Z"/>
        <path id="fullLogo-2" class="cls-1" d="M387.3,48.7c31.2,0,53.2,21.2,53.2,50.7s-22,50.5-53.2,50.5-52.8-21.2-52.8-50.6,21.6-50.6,52.8-50.6ZM387.3,124.7c14.8,0,25-9.4,25-25.2s-11.3-25.4-25-25.4-24.6,9.2-24.6,25.4c0,14.3,9.9,25.2,24.6,25.2Z"/>
        <path id="fullLogo-3" class="cls-1" d="M450.8,79c0-18.8,15.6-30.3,42.1-30.3s34.4,8.7,40.6,17.7l-18.6,17.8c-6.4-6.6-15.2-10.2-27.4-10.2s-8.5,1.1-8.5,4.7c0,8.5,55.4,5.8,55.4,40.4s-19.2,30.8-41.3,30.8-39.8-10.9-46.8-23.7l21.6-14.7c5.3,6.8,16.2,13,28.2,13s10.1-1.7,10.1-5.3c0-9.4-55.4-6.9-55.4-40.2Z"/>
        <path id="fullLogo-4" class="cls-1" d="M562.5,11.4c8.8,0,15.2,5.8,15.2,13.5s-6.4,13.9-15.2,13.9-15.4-5.8-15.4-13.9,6.4-13.5,15.4-13.5ZM548.8,50.8h27.2v97.7h-27.2V50.8Z"/>
        <path id="fullLogo-5" class="cls-1" d="M586.5,50.8h18.5v-22.7h27.2v22.7h29.9v25.4h-29.9v31.8c0,11.8,2.6,16.3,10,16.3s11.5-2.3,16.7-6.4l11.3,19.3c-6.8,7.1-17.3,12.4-30.6,12.4-20.5,0-34.6-11.1-34.6-33.6v-39.8h-18.6v-25.4Z"/>
        <path id="fullLogo-6" class="cls-1" d="M675.7,50.9h11.7v2.8h-4.4v10.7h-3v-10.7h-4.3v-2.8Z"/>
        <path id="fullLogo-7" class="cls-1" d="M688.9,50.9h2.8l4.3,6.5,4.1-6.5h2.7v13.5h-3v-8.1l-3.5,5.4h-.8l-3.6-5.4v8.2h-3v-13.6Z"/>
        <polygon id="fullLogo-8" class="cls-3" points="38 80.6 46.2 77 82.9 60.8 90.9 57.2 179.7 18 179.7 65.3 143.8 80.6 135.7 77 173.2 61 173.2 27.9 98.9 60.8 90.9 64.3 54.3 80.5 46.2 84.1 20.3 95.5 20.3 104 45.8 115.3 53.9 118.9 91.5 135.4 99.5 139 173.2 171.6 173.2 138.1 136.1 122.3 144.2 118.7 179.7 133.9 179.7 181.5 91.5 142.6 83.6 139 45.8 122.3 37.6 118.7 13.8 108.2 13.8 91.3 38 80.6"/>
        <polygon class="cls-3" points="99.2 99.6 135.6 84.1 127.5 80.5 82.6 99.6 127.9 118.9 136 115.3 99.2 99.6"/>
        <polygon id="fullLogo-9" class="cls-2" points="45.8 115.3 53.9 118.9 90.9 103.1 82.7 99.6 45.8 115.3"/>
        <polygon id="fullLogo-10" class="cls-2" points="54.3 80.5 46.2 84.1 82.7 99.6 90.9 96.1 54.3 80.5"/>
        <polygon id="fullLogo-11" class="cls-2" points="143.8 80.6 135.7 77 98.9 60.8 90.9 57.2 2.1 18 2.1 65.3 38 80.6 46.2 77 8.6 61 8.6 27.9 82.9 60.8 90.9 64.3 127.5 80.5 135.6 84.1 161.6 95.5 161.6 104 136.1 115.3 127.9 118.9 90.4 135.4 82.4 139 8.6 171.6 8.6 138.1 45.8 122.3 37.6 118.7 2.1 133.9 2.1 181.5 90.3 142.6 98.3 139 136.1 122.3 144.2 118.7 168 108.2 168 91.3 143.8 80.6"/>
      </g>
      <g>
        <path class="cls-1" d="M792.6,30.3c-7.1,0-13.5,1.2-19.1,3.6-5.7,2.4-10.5,5.9-14.4,10.5-4,4.6-7,10.2-9.1,16.7s-3.2,13.8-3.2,22,1.7,20.1,5.1,28.1c3.4,7.9,8.4,14.1,15.1,18.4,6.7,4.3,15.1,6.5,25.2,6.5s11.1-.5,16.2-1.5c5.1-1,10-2.2,14.8-3.6v13c-4.7,1.8-9.6,3.1-14.8,3.9-5.2.8-11.3,1.3-18.4,1.3-13.1,0-24-2.7-32.7-8.1-8.8-5.4-15.3-13.1-19.7-23s-6.5-21.6-6.5-35.1,1.4-18.6,4.1-26.7c2.7-8.1,6.7-15,12-20.9,5.2-5.9,11.7-10.4,19.3-13.6s16.4-4.8,26.3-4.8,12.8.6,18.8,1.9,11.5,3.1,16.3,5.5l-6,12.7c-4.1-1.9-8.6-3.5-13.5-4.9-4.8-1.2-10.1-1.9-15.8-1.9Z"/>
        <path class="cls-1" d="M927.4,99.2c0,7.9-1,15-3.1,21.2s-5,11.5-8.9,15.7c-3.9,4.3-8.5,7.5-14,9.8s-11.7,3.4-18.6,3.4-12.3-1.1-17.7-3.4-10-5.5-13.9-9.8-6.9-9.5-9.1-15.7c-2.1-6.2-3.2-13.3-3.2-21.2s1.8-19.5,5.4-26.9c3.6-7.4,8.7-13.1,15.3-17s14.6-5.8,23.8-5.8,16.5,2,23.1,5.9,11.7,9.6,15.4,17c3.7,7.3,5.5,16.3,5.5,26.8ZM854.1,99.2c0,7.7,1,14.4,3.1,20.1s5.2,10.1,9.5,13.2,9.8,4.7,16.5,4.7,12.2-1.6,16.5-4.7c4.3-3.1,7.5-7.5,9.5-13.2,2.1-5.7,3.1-12.4,3.1-20.1s-1-14.3-3.1-19.9-5.2-9.9-9.5-13c-4.3-3-9.8-4.6-16.6-4.6-10,0-17.4,3.3-22,9.9-4.7,6.7-7,15.8-7,27.6Z"/>
        <path class="cls-1" d="M993.8,49.4c11.4,0,20.1,2.8,25.9,8.4,5.9,5.6,8.8,14.6,8.8,26.9v62.8h-14.4v-61.8c0-8-1.8-14-5.5-18s-9.3-6-16.8-6c-10.7,0-18.2,3-22.5,9.1-4.3,6-6.5,14.8-6.5,26.3v50.4h-14.6V51.2h11.8l2.2,13.9h.8c2.1-3.4,4.7-6.3,7.8-8.6,3.2-2.3,6.7-4.1,10.6-5.3,3.9-1.2,8-1.8,12.4-1.8Z"/>
        <path class="cls-1" d="M1099.7,49.4c11.4,0,20.1,2.8,25.9,8.4,5.9,5.6,8.8,14.6,8.8,26.9v62.8h-14.4v-61.8c0-8-1.8-14-5.5-18s-9.3-6-16.8-6c-10.7,0-18.2,3-22.5,9.1-4.3,6-6.5,14.8-6.5,26.3v50.4h-14.7V51.2h11.8l2.2,13.9h.8c2.1-3.4,4.7-6.3,7.8-8.6,3.2-2.3,6.7-4.1,10.6-5.3,4-1.2,8.1-1.8,12.5-1.8Z"/>
        <path class="cls-1" d="M1197,49.4c8.2,0,15.2,1.8,21.1,5.4,5.9,3.6,10.3,8.7,13.4,15.2,3.1,6.5,4.7,14.2,4.7,22.9v9.1h-66.5c.2,11.3,3,19.9,8.4,25.8,5.4,5.9,13.1,8.9,23,8.9s11.5-.6,16.2-1.7c4.7-1.1,9.5-2.8,14.6-4.9v12.9c-4.9,2.2-9.7,3.8-14.5,4.7-4.8,1-10.4,1.5-16.9,1.5-9.3,0-17.3-1.9-24.2-5.7-6.9-3.8-12.2-9.3-16-16.7-3.8-7.3-5.7-16.3-5.7-26.9s1.7-19.3,5.2-26.9c3.5-7.6,8.4-13.4,14.8-17.5,6.3-4,13.8-6.1,22.4-6.1ZM1196.8,61.4c-7.8,0-14,2.5-18.6,7.6s-7.4,12.2-8.3,21.4h51c0-5.7-1-10.8-2.7-15.2-1.7-4.4-4.4-7.8-7.9-10.2-3.4-2.4-8-3.6-13.5-3.6Z"/>
        <path class="cls-1" d="M1295.1,149.3c-8.7,0-16.3-1.8-22.9-5.4-6.6-3.6-11.8-9-15.5-16.3s-5.5-16.6-5.5-27.7,1.9-21.2,5.8-28.6,9.3-12.9,16.1-16.5c6.9-3.6,14.6-5.4,23.4-5.4s9.4.5,13.9,1.5,8.2,2.2,11,3.6l-4.4,12.2c-2.9-1.2-6.3-2.2-10.2-3.2-3.8-.9-7.4-1.4-10.8-1.4-6.7,0-12.2,1.4-16.7,4.3-4.4,2.9-7.7,7.1-9.9,12.7-2.2,5.6-3.3,12.4-3.3,20.6s1.1,14.4,3.2,20c2.1,5.5,5.3,9.7,9.6,12.6,4.2,2.9,9.6,4.4,16,4.4s9.7-.5,13.8-1.6c4.1-1.1,7.8-2.4,11.2-3.8v13c-3.2,1.6-6.8,2.9-10.8,3.8s-8.6,1.2-14,1.2Z"/>
        <path class="cls-1" d="M1369.3,137.3c2.4,0,4.9-.2,7.4-.6,2.5-.4,4.6-.9,6.2-1.5v11.3c-1.7.8-4.1,1.4-7.1,1.9s-6,.8-8.8.8c-5.1,0-9.7-.9-13.9-2.7-4.2-1.8-7.5-4.8-10-9.1s-3.7-10.2-3.7-17.8v-57h-13.7v-7.1l13.8-5.7,5.8-20.9h8.8v22.3h28.2v11.4h-28.3v56.7c0,6,1.4,10.5,4.2,13.5,2.8,3,6.5,4.5,11.1,4.5Z"/>
      </g>
    </g>
  </g>
</svg>